<svg viewBox="0 0 350.00000000000006 148.85243566008512"><defs id="SvgjsDefs1465"></defs><g id="SvgjsG1466" featurekey="symbolFeature-0" transform="matrix(1.5834919910603422,0,0,1.5834919910603422,103.86988234716586,-26.285964635384655)" fill="#ffffff"><g xmlns="http://www.w3.org/2000/svg"><path d="M80.6,43c1.3-3.9,0.6-9.3-2.8-12.5c-3.6-3.5-9.7-4.5-14.3-2.2c-3.6-6.8-12.3-11.7-21.1-11.7c-2.3,0-4.5,0.3-6.5,1   c-9.5,3-18.4,11.7-18.1,23.1c-1-0.2-2.1-0.3-3.2-0.3c-7.2,0-13,4.9-13.8,11.7c-0.4,3.3,0.6,6.3,2.8,8.7c3.3,3.6,9.2,5.8,16,5.8   h13.8v-3.2H19.7c-5.9,0-11-1.8-13.6-4.7c-1.6-1.7-2.2-3.8-2-6.2c0.6-5.1,5-8.9,10.6-8.9c1.5,0,3,0.3,4.4,0.8l2.5,1l-0.4-2.7   c-1.5-10.7,6.7-19.2,15.7-22c1.8-0.6,3.7-0.8,5.6-0.8c8.1,0,16.4,5,18.9,11.4l0.8,2l1.7-1.2c1.6-1.1,3.3-1.7,5.2-1.7   c2.4,0,4.9,1,6.6,2.6c2.8,2.7,3,7.8,1.4,10.5l-1.3,2.2l2.5,0.3c3.9,0.4,8.1,4.7,7.8,9.9c-0.3,4.4-4.2,7.8-9.2,7.8H75v3.2h1.7   c6.7,0,12-4.6,12.4-10.8C89.5,49.6,85.2,44.5,80.6,43z"></path><path d="M51,66.3l-15.3-7v6.9c1,1.8,8.1,4.7,15.3,5.1c7.3-0.3,14.3-3.3,15.3-5.1v-6.9L51,66.3z"></path><path d="M51,41.4L23.2,51.6L51,64.3l27.8-12.7L51,41.4z M51,51.7c-1.3,0-2.2-1.3-2.3-1.9l0.2-0.2c0,0,0.9,0.5,2.1,0.5   c1.3,0,2.1-0.5,2.1-0.5l0.2,0.2C53.2,50.4,52.3,51.7,51,51.7z"></path><rect x="68" y="54.6" width="1.3" height="15.5"></rect><rect x="72.3" y="53.2" width="1.3" height="15.5"></rect><rect x="70.2" y="53.8" width="1.3" height="17.1"></rect></g></g><g id="SvgjsG1467" featurekey="nameFeature-0" transform="matrix(1.376550499213802,0,0,1.376550499213802,-2.7524109679899924,93.51681772048312)" fill="#ffffff"><path d="M10.16 9.8 c-0.76 0.04 -1.52 0.16 -2.28 0.4 c-1.64 0.56 -3.12 1.68 -4.12 3.12 c-0.88 1.32 -1.24 2.88 -1.36 4.44 c-0.08 1.2 0.04 2.44 0.6 3.52 c0.6 1.16 1.64 2.16 2.52 3.12 c0.8 0.84 1.6 1.68 2.48 2.44 c0.8 0.76 1.72 1.36 2.52 2.16 c1.16 1.16 1.6 3.8 0.76 5.24 c-1 1.6 -3.36 1.84 -4.92 1.32 c-0.8 -0.28 -1.52 -0.88 -2.2 -1.36 c-0.4 -0.28 -0.88 -0.4 -1.16 0.08 c-0.16 0.24 -0.24 0.52 -0.32 0.76 c-0.28 1 -0.64 1.92 -0.68 3 c-0.04 1.24 2.32 1.6 3.2 1.8 c3.92 0.92 8.64 0.2 10.68 -3.68 c0.4 -0.8 0.68 -1.64 0.84 -2.52 c0.04 -0.32 0.08 -0.6 0.08 -0.92 c0.16 -2.56 -0.88 -4.72 -2.44 -6.64 c-1.68 -2.08 -3.8 -3.52 -5.76 -5.32 c-1.2 -1.12 -1.64 -2.88 -1.28 -4.48 c0.36 -1.72 2.32 -2.16 3.8 -1.72 c0.44 0.12 0.8 0.32 1.2 0.56 c0.24 0.12 0.48 0.28 0.8 0.28 c0.56 0.04 0.64 -0.4 0.76 -0.84 c0.28 -1 0.76 -1.8 0.96 -2.76 c0.2 -1.08 -0.68 -1.28 -1.56 -1.56 c-1.04 -0.28 -2.04 -0.48 -3.12 -0.44 z M28.848 35.64 c0.04 1.24 0.04 2.48 0.08 3.72 c0 0.56 0.04 0.64 0.6 0.64 l3.6 0 c0.76 0 0.6 -1.28 0.56 -1.96 l0.12 -22.4 c0 -0.6 0.2 -0.8 1 -0.8 l3.52 0 c0.84 0 0.64 -1.44 0.64 -2.44 c0 -0.88 0.32 -2.4 -0.64 -2.4 c-0.68 0 -7.2 0 -9.88 0.04 c-1.32 0 -2.4 -0.04 -3.72 -0.04 c-1 0 -0.96 0.8 -0.96 2.56 c0 1.12 -0.04 2.24 0.92 2.24 c0.56 0 2.84 0 3.48 0.04 c0.4 0 0.68 0.12 0.76 0.56 c0 0.12 0.04 0.24 0.04 0.36 c0 2.88 -0.2 16.28 -0.12 19.88 z M45.976 16.56 c0 4.04 0.04 8.12 0.12 12.12 c0.04 2.44 0 5.2 1.16 7.44 c1.48 2.88 4.76 4.16 7.92 3.96 c2.16 -0.16 4.16 -0.72 5.72 -2.32 c2.64 -2.84 2.12 -7.28 2.16 -10.92 c0.08 -5.24 0.2 -10.12 0.2 -15.4 c0 -0.88 -0.28 -1.36 -1.16 -1.4 c-1.08 -0.04 -2.16 0 -3.24 0.08 c-0.44 0 -0.8 0.4 -0.8 0.88 c0.04 3.84 0.12 7.72 0.08 11.6 c-0.04 3.32 0.4 7 -0.84 10.16 c-0.48 1.16 -1.56 2.04 -2.84 2.04 c-3.2 -0.08 -3.08 -3.88 -3.2 -6.12 c-0.24 -4.88 0.12 -9.88 0.24 -14.76 c0 -0.92 0 -1.84 0.04 -2.76 c0.04 -0.48 0.12 -1.08 -0.52 -1.12 l-0.72 0 c-1 0.08 -2 -0.04 -3 0 c-0.96 0.08 -1.28 0.36 -1.28 1.32 c0 1.72 -0.04 3.48 -0.04 5.2 z M87.06400000000001 32.64 c0.24 -0.52 0.44 -1.04 0.64 -1.56 c0.44 -1.28 0.52 -2.6 0.64 -3.92 c0.24 -2.8 0.16 -5.64 -0.56 -8.36 c-0.88 -3.48 -3.12 -6.68 -6.48 -8.16 c-1.52 -0.68 -3.24 -0.76 -4.88 -0.72 c-1.72 0 -3.48 -0.08 -5.2 0.08 c-0.48 0.04 -0.72 0.28 -0.8 0.72 c-0.08 0.48 -0.16 0.96 -0.16 1.4 c0.08 2.44 0 9.68 0.08 10.88 c0.04 1.08 -0.08 2.4 -0.08 3.48 c0.04 2.68 0 5.4 0 8.08 c0 1.12 -0.04 2.2 -0.04 3.32 c0 1.2 -0.44 1.72 2.84 1.72 c2.92 0 5.96 -0.24 8.72 -1.28 c2.56 -0.92 4.16 -3.28 5.28 -5.68 z M75.424 28.48 l0 -4.8 c0 -3.04 0.08 -5 -0.04 -7.56 l0 -0.48 c0.04 -0.84 0.16 -0.88 1.04 -0.88 c1.16 -0.04 2 0.24 3 0.64 s1.56 1.28 2.08 2.12 c1 1.64 1.4 3.44 1.48 5.32 c0.04 1.08 0.08 2.16 0.08 3.24 c0 5.12 -3 8.68 -5.64 8.68 c-1.76 0 -2.04 0.12 -2.04 -1.04 c0 -1.2 0.08 -2.4 0.08 -3.6 c-0.04 -0.52 -0.04 -1.08 -0.04 -1.64 z M102.672 27.759999999999998 l0.04 11.68 c0 0.44 0.4 0.6 0.72 0.6 l3.68 0 c0.68 0 0.68 -0.6 0.68 -0.88 c0 -3.76 0 -7.8 0.16 -11.6 c0 -0.64 0.08 -1.24 0.4 -1.84 c0.36 -0.6 5.68 -12.48 6.28 -14.44 c0.08 -0.28 0.24 -0.76 -0.04 -1 c-0.48 -0.44 -2.4 -0.24 -3.56 -0.24 c-0.72 0 -1.16 0.28 -1.48 1 c-1.36 3.16 -2.76 6.28 -4.16 9.44 c-0.12 0.28 -0.28 0.28 -0.48 0 c-0.44 -0.72 -3.28 -7.76 -3.72 -9.32 c-0.08 -0.2 -0.12 -0.4 -0.24 -0.56 c-0.56 -0.64 -1.48 -0.56 -2.24 -0.56 c-1 0 -1.72 0.04 -2.68 0.04 c-0.64 0 -0.68 0.6 -0.56 1.12 c0.04 0.2 0.16 0.4 0.24 0.56 c1.52 2.88 5.8 12.4 6.56 14.2 c0.4 0.84 0.36 0.88 0.4 1.8 z M134.72799999999998 15.239999999999998 c0.04 2.36 0.04 22.4 0.04 24.04 c0 0.6 0.08 0.72 0.68 0.72 c1.36 0 1.36 0.04 2.72 0 c0.28 0 0.76 0 1 -0.12 c0.28 -0.12 0.12 -9.56 0.12 -10.08 c0 -0.56 1.12 -0.44 1.44 -0.44 c6.68 0 8.52 -4.8 8.52 -8.88 c0 -3.68 -0.72 -10.48 -9.04 -10.48 c-1.44 0 -2.92 0.04 -4.32 0.04 c-0.32 0 -0.72 -0.04 -1 0.16 c-0.32 0.24 -0.2 3.8 -0.16 5.04 z M139.32799999999997 23.48 c0 -0.88 -0.04 -6.12 0 -7.72 c0 -0.24 -0.04 -0.52 0 -0.8 c0.12 -0.44 0.64 -0.44 1.04 -0.4 c2.32 0.16 3.64 2.2 3.84 4.36 c0.16 1.56 -0.04 3.88 -1.16 5.12 c-0.8 0.84 -1.84 1.36 -3.2 1.36 c-0.28 0 -0.56 -0.32 -0.56 -0.6 c0 -0.44 0 -0.88 0.04 -1.32 z M177.296 17.36 c0.84 2.48 1.04 5.16 1.04 7.8 c0 2.2 -0.4 4.32 -0.96 6.44 c-0.72 2.52 -1.92 4.8 -4.08 6.28 c-1.6 1.16 -3.28 1.92 -5.24 2.12 c-0.28 0 -0.52 0.04 -0.8 0.04 c-0.24 0 -0.48 -0.04 -0.76 -0.04 c-1.96 -0.2 -3.64 -0.96 -5.28 -2.12 c-2.12 -1.48 -3.36 -3.76 -4.04 -6.28 c-0.6 -2.12 -0.96 -4.24 -0.96 -6.44 c0 -2.64 0.2 -5.32 1.04 -7.8 c1.48 -4.28 5.56 -7.32 10 -7.4 c4.44 0.08 8.52 3.12 10.04 7.4 z M173.41599999999997 28.08 c0.4 -2.44 0.24 -4.92 -0.24 -7.36 c-0.48 -2.2 -1.44 -4.36 -3.28 -5.68 c-0.32 -0.24 -0.68 -0.44 -1.04 -0.56 c-0.52 -0.24 -1.08 -0.32 -1.6 -0.32 s-1.04 0.08 -1.56 0.32 c-0.4 0.12 -0.72 0.32 -1.04 0.56 c-1.88 1.32 -2.84 3.48 -3.28 5.68 c-0.48 2.44 -0.64 4.92 -0.24 7.36 c0.4 2.2 1.2 5.16 3.28 6.28 c0.88 0.48 1.84 0.8 2.84 0.84 c1 -0.04 2 -0.36 2.88 -0.84 c2.08 -1.12 2.88 -4.08 3.28 -6.28 z M185.30399999999997 13.920000000000002 c-0.04 2.48 0.2 20.6 0.16 21.92 c0 1.24 0 2.48 0.04 3.72 c0 0.2 0.12 0.4 0.32 0.4 c2.8 0.12 5.56 -0.12 8.36 -0.08 c0.92 0.04 1.84 0 2.72 0 c0.88 -0.04 0.96 -0.4 0.92 -1.12 c-0.04 -1.12 -0.04 -2.12 -0.04 -3.2 c-0.04 -0.56 -0.36 -0.76 -0.84 -0.76 c-1.64 0.04 -3.28 -0.04 -4.92 0.04 c-0.28 0.04 -0.56 0.04 -0.84 0.04 c-0.48 -0.04 -0.6 -0.16 -0.64 -0.68 l0 -0.6 c-0.12 -3.32 0.12 -6.76 0.12 -10.08 c-0.04 -2.8 0 -5.32 -0.04 -7.8 c0 -1.08 0 -2.16 -0.04 -3.2 c-0.04 -0.64 0 -1.32 -0.16 -1.96 c-0.08 -0.24 -0.2 -0.56 -0.48 -0.56 l-3.76 0 c-0.64 0 -0.84 0.44 -0.88 1.08 l0 2.84 z M210.31199999999998 29.68 c-0.12 -4.56 -0.08 -9.4 -0.04 -13.92 c0 -1.4 -0.08 -2.92 -0.08 -4.32 c0 -1.52 -0.6 -1.44 -1.4 -1.48 c-1.16 -0.04 -1.68 -0.04 -2.84 -0.04 c-0.76 -0.04 -1.08 0.16 -1.08 0.92 c0 3.92 -0.12 15 -0.08 16.6 s0.2 8.88 0.12 10.48 c-0.04 0.56 0 1.12 0.04 1.68 c0.04 0.2 0.16 0.4 0.48 0.4 c1.32 -0.08 2.56 -0.08 3.88 -0.12 c0.48 -0.04 0.88 -0.16 1.08 -0.68 c0.04 -0.28 -0.08 -7.6 -0.08 -9.52 z M225.51999999999998 9.8 c-0.76 0.04 -1.52 0.16 -2.28 0.4 c-1.64 0.56 -3.12 1.68 -4.12 3.12 c-0.88 1.32 -1.24 2.88 -1.36 4.44 c-0.08 1.2 0.04 2.44 0.6 3.52 c0.6 1.16 1.64 2.16 2.52 3.12 c0.8 0.84 1.6 1.68 2.48 2.44 c0.8 0.76 1.72 1.36 2.52 2.16 c1.16 1.16 1.6 3.8 0.76 5.24 c-1 1.6 -3.36 1.84 -4.92 1.32 c-0.8 -0.28 -1.52 -0.88 -2.2 -1.36 c-0.4 -0.28 -0.88 -0.4 -1.16 0.08 c-0.16 0.24 -0.24 0.52 -0.32 0.76 c-0.28 1 -0.64 1.92 -0.68 3 c-0.04 1.24 2.32 1.6 3.2 1.8 c3.92 0.92 8.64 0.2 10.68 -3.68 c0.4 -0.8 0.68 -1.64 0.84 -2.52 c0.04 -0.32 0.08 -0.6 0.08 -0.92 c0.16 -2.56 -0.88 -4.72 -2.44 -6.64 c-1.68 -2.08 -3.8 -3.52 -5.76 -5.32 c-1.2 -1.12 -1.64 -2.88 -1.28 -4.48 c0.36 -1.72 2.32 -2.16 3.8 -1.72 c0.44 0.12 0.8 0.32 1.2 0.56 c0.24 0.12 0.48 0.28 0.8 0.28 c0.56 0.04 0.64 -0.4 0.76 -0.84 c0.28 -1 0.76 -1.8 0.96 -2.76 c0.2 -1.08 -0.68 -1.28 -1.56 -1.56 c-1.04 -0.28 -2.04 -0.48 -3.12 -0.44 z M251.128 28.16 c0 1.8 -0.04 5.36 -0.08 5.36 l0 5.44 c0 0.24 -0.04 0.64 0.08 0.88 c0.12 0.28 0.48 0.2 0.72 0.16 c1.16 -0.12 2.32 0.04 3.48 0 c1.28 -0.04 0.88 -2 0.84 -2.8 c-0.16 -1.76 0.04 -15.16 0.04 -19.96 c0 -2.16 -0.08 -6.6 -0.2 -6.8 c-0.2 -0.36 -0.72 -0.44 -1.12 -0.48 c-0.88 -0.16 -1.32 0.08 -2.64 0.08 s-1.4 0.4 -1.4 1.8 l0 1.2 c-0.04 0.96 0.12 7.68 0.12 8.76 c0 0.52 -0.04 0.56 -0.56 0.56 c-1.32 -0.04 -3.16 0.12 -4.52 0 c-1.96 -0.16 -1.52 0 -1.64 -1.8 l0 -0.24 c0 -2.56 0.32 -9.2 0.2 -9.6 c-0.2 -0.6 -0.44 -0.72 -0.96 -0.68 c-1.2 0.08 -2.44 -0.12 -3.64 -0.04 c-0.4 0.04 -0.52 0.16 -0.64 0.56 c-0.04 0.2 -0.08 0.4 -0.08 0.6 c0 1.24 0.08 2.92 0.12 4.16 l-0.12 23.72 c0 1.04 0.92 0.92 2.96 0.92 c1.88 0 2.36 0.44 2.36 -1.8 c0 -1.8 -0.12 -4.08 -0.08 -5.88 c0.04 -1.4 0 -2.76 0 -4.16 c0.04 -0.52 0.16 -0.68 0.64 -0.68 c1.76 -0.04 3.68 0 5.44 0 c0.56 0 0.68 0.08 0.68 0.72 z"></path></g></svg>